<svg height='100px' width='100px'  fill="#FFFFFF" xmlns="http://www.w3.org/2000/svg" xmlns:xlink="http://www.w3.org/1999/xlink" version="1.1" x="0px" y="0px" viewBox="0 0 100 100" enable-background="new 0 0 100 100" xml:space="preserve"><g><g><path d="M-3173.395,76.667c-0.852,0-1.641-0.548-1.909-1.404c-0.329-1.054,0.258-2.176,1.313-2.505l18.167-5.675    c1.055-0.329,2.176,0.259,2.505,1.313c0.329,1.054-0.258,2.176-1.313,2.505l-18.167,5.675    C-3172.997,76.638-3173.198,76.667-3173.395,76.667z"></path></g><g><path d="M-3195.593,76.667c-0.197,0-0.398-0.029-0.597-0.091l-18.167-5.675c-1.055-0.33-1.642-1.451-1.313-2.505    c0.33-1.055,1.451-1.645,2.505-1.313l18.167,5.675c1.055,0.33,1.642,1.451,1.313,2.505    C-3193.952,76.119-3194.741,76.667-3195.593,76.667z"></path></g></g><g><g><path d="M-3173.395,65.19c-0.852,0-1.641-0.548-1.909-1.404c-0.329-1.054,0.259-2.176,1.313-2.505l18.167-5.674    c1.055-0.33,2.176,0.259,2.505,1.313c0.329,1.054-0.259,2.176-1.313,2.505l-18.167,5.674    C-3172.997,65.161-3173.198,65.19-3173.395,65.19z"></path></g><g><path d="M-3195.593,65.19c-0.197,0-0.398-0.029-0.597-0.091l-18.167-5.674c-1.054-0.33-1.642-1.451-1.313-2.505    c0.33-1.055,1.451-1.643,2.505-1.313l18.167,5.674c1.054,0.33,1.642,1.451,1.313,2.505    C-3193.952,64.642-3194.741,65.19-3195.593,65.19z"></path></g></g><g><g><path d="M-3173.395,53.713c-0.852,0-1.641-0.548-1.909-1.404c-0.329-1.054,0.259-2.176,1.313-2.505l18.167-5.674    c1.055-0.331,2.176,0.259,2.505,1.313c0.329,1.054-0.259,2.176-1.313,2.505l-18.167,5.674    C-3172.997,53.684-3173.198,53.713-3173.395,53.713z"></path></g><g><path d="M-3195.593,53.713c-0.197,0-0.398-0.029-0.597-0.091l-18.167-5.674c-1.054-0.33-1.642-1.451-1.313-2.505    c0.33-1.055,1.451-1.644,2.505-1.313l18.167,5.674c1.054,0.33,1.642,1.451,1.313,2.505    C-3193.952,53.165-3194.741,53.713-3195.593,53.713z"></path></g></g><g><g><path d="M-3173.395,42.237c-0.852,0-1.641-0.548-1.909-1.404c-0.329-1.054,0.258-2.176,1.313-2.505l18.167-5.675    c1.055-0.331,2.176,0.259,2.505,1.313c0.329,1.054-0.258,2.176-1.313,2.505l-18.167,5.675    C-3172.997,42.208-3173.198,42.237-3173.395,42.237z"></path></g><g><path d="M-3195.593,42.237c-0.197,0-0.398-0.029-0.597-0.091l-18.167-5.675c-1.055-0.33-1.642-1.451-1.313-2.505    c0.33-1.054,1.451-1.644,2.505-1.313l18.167,5.675c1.055,0.33,1.642,1.451,1.313,2.505    C-3193.952,41.688-3194.741,42.237-3195.593,42.237z"></path></g></g><g><path d="M-3141.89,9.99c-0.77-0.57-1.76-0.73-2.67-0.45l-39.57,12.36l-39.57-12.36c-0.91-0.28-1.9-0.12-2.67,0.45   c-0.77,0.56-1.22,1.46-1.22,2.41v69.8c0,1.32,0.85,2.48,2.1,2.87l40.47,12.64c0.06,0.02,0.11,0.03,0.17,0.04   c0.06,0.02,0.12,0.03,0.18,0.04c0.08,0.01,0.15,0.03,0.22,0.03c0.11,0.01,0.21,0.02,0.32,0.02s0.21-0.01,0.32-0.02   c0.07,0,0.15-0.02,0.23-0.03c0.05-0.01,0.1-0.02,0.15-0.03c0.07-0.01,0.13-0.03,0.2-0.05l40.46-12.64c1.25-0.39,2.1-1.55,2.1-2.87   V12.4C-3140.67,11.45-3141.12,10.55-3141.89,9.99z M-3221.59,16.48l34.46,10.77v63.51L-3221.59,80V16.48z M-3146.67,80   l-34.46,10.76V27.25l34.46-10.77V80z"></path></g><g><path d="M94.982,56.378c0-0.053-0.009-0.107-0.018-0.151c-0.009-0.08-0.027-0.16-0.053-0.232c-0.053-0.223-0.134-0.428-0.241-0.624   l-0.027-0.045L76.311,21.921c-0.463-0.855-1.363-1.39-2.343-1.39H62.36c-1.47,0-2.672,1.194-2.672,2.672   c0,1.479,1.203,2.672,2.672,2.672h10.031l15.42,28.105H64.356c-1.47,0-2.672,1.203-2.672,2.672c0,6.45-5.238,11.688-11.688,11.688   c-6.441,0-11.688-5.238-11.688-11.688c0-1.47-1.194-2.672-2.672-2.672H12.189l15.42-28.105h10.022c1.479,0,2.672-1.194,2.672-2.672   c0-1.479-1.194-2.672-2.672-2.672H26.024c-0.971,0-1.871,0.534-2.343,1.39L5.356,55.327L5.33,55.372c0,0,0,0.009-0.009,0.009   c-0.054,0.098-0.098,0.196-0.134,0.294c-0.036,0.089-0.071,0.187-0.098,0.285c-0.018,0.071-0.036,0.143-0.045,0.223   c-0.018,0.062-0.027,0.134-0.027,0.196C5.009,56.467,5,56.565,5,56.654v30.983c0,1.479,1.194,2.672,2.672,2.672h84.655   c1.47,0,2.672-1.194,2.672-2.672V56.654C95,56.565,94.991,56.467,94.982,56.378z M89.655,84.965h-79.31V59.327h22.832   c1.283,8.133,8.338,14.36,16.819,14.36s15.536-6.227,16.828-14.36h22.832V84.965z"></path></g><g><g><path d="M64.249,39.604L51.884,51.969c-0.071,0.071-0.143,0.134-0.223,0.196c-0.187,0.151-0.401,0.276-0.624,0.374    c-0.187,0.08-0.383,0.143-0.579,0.169c-0.151,0.027-0.303,0.045-0.463,0.045c-0.169,0-0.33-0.018-0.49-0.045    c-0.223-0.045-0.428-0.107-0.624-0.205c-0.196-0.089-0.383-0.205-0.552-0.339c-0.071-0.062-0.151-0.125-0.223-0.196L35.742,39.604    c-1.042-1.051-1.042-2.735,0-3.786c1.042-1.042,2.735-1.042,3.777,0l7.804,7.804V12.363c0-1.47,1.203-2.672,2.672-2.672    c1.479,0,2.672,1.203,2.672,2.672v31.259l7.804-7.804c1.042-1.042,2.735-1.042,3.777,0C65.3,36.869,65.3,38.553,64.249,39.604z"></path></g></g></svg>
